<?xml version="1.0" standalone="no"?><!DOCTYPE svg PUBLIC "-//W3C//DTD SVG 1.1//EN" "http://www.w3.org/Graphics/SVG/1.1/DTD/svg11.dtd"><svg t="1606270577850" class="icon" viewBox="0 0 1024 1024" version="1.1" xmlns="http://www.w3.org/2000/svg" p-id="1478" xmlns:xlink="http://www.w3.org/1999/xlink" width="64" height="64"><defs><style type="text/css"></style></defs><path d="M748.05096297 874.63253333H282.624c-17.84035555 0.72817778-32.03982222 15.4130963-32.03982222 33.25345185s14.0781037 32.52527408 32.03982222 33.25345185h465.42696297c17.84035555-0.72817778 32.03982222-15.4130963 32.03982221-33.25345185s-14.19946667-32.52527408-32.03982221-33.25345185z m88.83768888-795.17013333H189.78133333c-37.62251852 0-73.66731852 14.92764445-100.24580741 41.50613333-26.57848889 26.57848889-41.50613333 62.62328889-41.50613333 100.24580742V666.13096297c0 78.40047408 63.59419259 141.8733037 141.87330371 141.8733037h647.10731852c78.27911111 0 141.75194075-63.47282963 141.75194073-141.8733037V221.57842963c0-37.62251852-14.80628148-73.78868148-41.50613333-100.36717038-26.57848889-26.69985185-62.62328889-41.74885925-100.36717037-41.74885925z m71.1186963 586.78992592c0 18.81125925-7.40314075 36.89434075-20.75306667 50.12290371-13.34992592 13.34992592-31.31164445 20.75306667-50.1229037 20.75306667H189.9026963c-18.81125925 0-36.89434075-7.5245037-50.12290371-20.75306667-13.34992592-13.34992592-20.75306667-31.31164445-20.75306667-50.24426666V221.57842963c0-18.81125925 7.40314075-36.89434075 20.75306667-50.24426666 13.34992592-13.34992592 31.43300741-20.87442963 50.24426666-20.87442964h647.10731853c18.81125925-0.12136297 36.89434075 7.40314075 50.24426667 20.6317037 13.34992592 13.34992592 20.87442963 31.31164445 20.87442963 50.24426667v444.91662222z m0 0" fill="#c0cbd9" p-id="1479"></path><path d="M441.36675555 322.18832592c0-46.36065185-37.62251852-83.98317037-83.98317037-83.98317037s-83.98317037 37.62251852-83.98317036 83.98317037c0 23.18032592 8.73813333 43.44794075 23.18032593 57.89013333-2.91271111 17.3549037-5.82542222 34.70980741-5.82542223 52.18607408 0 81.07045925 43.44794075 150.61143703 104.25078518 188.23395556l17.35490371-69.54097778c-34.70980741-29.00574815-54.97742222-72.45368889-54.97742223-118.81434074 0-8.73813333 0-17.3549037 2.91271112-26.09303704 43.32657778 0.12136297 81.07045925-37.50115555 81.07045925-83.86180741z m72.33232593-46.36065184c29.00574815 0 55.09878518 8.73813333 78.15774815 20.26761481-2.91271111 8.73813333-5.82542222 20.26761482-5.82542222 29.00574814 0 46.36065185 37.62251852 83.98317037 83.98317037 83.98317038s83.98317037-37.62251852 83.98317037-83.98317038-37.62251852-83.98317037-83.98317037-83.98317036c-11.52948148 0-20.26761482 2.91271111-31.91845926 5.82542222-34.70980741-23.18032592-78.15774815-37.62251852-124.5184-37.62251852-31.91845925 0-63.71555555 5.82542222-89.8085926 20.26761481l37.62251853 55.09878519c17.59762963-5.94678518 34.95253333-8.8594963 52.30743703-8.85949629z m156.43685927 162.26228147c-2.91271111 57.89013333-34.70980741 107.1634963-83.98317038 130.34382223-14.44219259-26.09303703-43.44794075-46.36065185-75.3664-46.36065186-46.36065185 0-83.98317037 37.62251852-83.98317037 83.98317038s37.62251852 83.98317037 83.98317037 83.98317037c34.70980741 0 63.71555555-20.26761482 78.15774815-52.18607408 86.89588148-31.91845925 147.69872592-112.98891852 147.69872593-208.62293334V414.90962963c-2.79134815 2.91271111-66.5069037 23.18032592-66.5069037 23.18032592z m0 0" fill="#c0cbd9" p-id="1480"></path></svg>