<?xml version="1.0" standalone="no"?><!DOCTYPE svg PUBLIC "-//W3C//DTD SVG 1.1//EN" "http://www.w3.org/Graphics/SVG/1.1/DTD/svg11.dtd"><svg t="1606271249809" class="icon" viewBox="0 0 1024 1024" version="1.1" xmlns="http://www.w3.org/2000/svg" p-id="2462" xmlns:xlink="http://www.w3.org/1999/xlink" width="64" height="64"><defs><style type="text/css"></style></defs><path d="M214.98311111 656.384v172.14577778h-96.48355556V656.384h96.48355556m50.51733333-68.26666667H67.98222222c-9.78488889 0-17.74933333 7.96444445-17.74933334 17.74933334v273.29422222c0 9.78488889 7.96444445 17.74933333 17.74933334 17.74933333h197.51822222c9.78488889 0 17.74933333-7.96444445 17.74933334-17.74933333V605.86666667c0-9.78488889-7.96444445-17.74933333-17.74933334-17.74933334zM892.18844444 656.384v172.14577778h-96.48355556V656.384h96.48355556m50.51733334-68.26666667H745.18755555c-9.78488889 0-17.74933333 7.96444445-17.74933333 17.74933334v273.29422222c0 9.78488889 7.96444445 17.74933333 17.74933333 17.74933333h197.51822223c9.78488889 0 17.74933333-7.96444445 17.74933333-17.74933333V605.86666667c0-9.78488889-7.96444445-17.74933333-17.74933333-17.74933334zM552.10666666 168.73244445v113.664h-96.48355555v-113.664h96.48355555m52.33777778-68.26666667H403.39911111c-8.87466667 0-15.92888889 7.168-15.92888889 15.92888889v218.22577778c0 8.76088889 7.168 15.92888889 15.92888889 15.92888888h201.04533333c8.87466667 0 15.92888889-7.168 15.92888889-15.92888888V116.39466667c0-8.87466667-7.168-15.92888889-15.92888889-15.92888889z" fill="#c0cbd9" p-id="2463"></path><path d="M844.17422222 612.46577778c-15.92888889 0-28.89955555-10.92266667-28.89955556-24.34844445v-75.09333333c0-42.78044445-30.60622222-78.848-72.02133333-89.42933333h100.92088889c15.92888889 0 28.89955555 10.92266667 28.89955556 24.34844444V588.23111111c0 13.312-12.97066667 24.23466667-28.89955556 24.23466667z m-675.38488889 0c-15.92888889 0-28.89955555-10.92266667-28.89955555-24.34844445V447.94311111c0-13.42577778 12.97066667-24.34844445 28.89955555-24.34844444h100.92088889c-41.41511111 10.58133333-72.02133333 46.64888889-72.02133334 89.42933333v75.09333333c0 13.42577778-12.97066667 24.34844445-28.89955555 24.34844445z" fill="#c0cbd9" p-id="2464"></path><path d="M838.94044444 457.728v5.80266667l-2.73066666-5.80266667h2.73066666m-662.18666666 0c-1.024 1.93422222-1.93422222 3.86844445-2.73066667 5.80266667v-5.80266667h2.73066667m667.42044444-68.26666667H168.78933333c-34.816 0-63.03288889 26.16888889-63.03288889 58.48177778V588.23111111c0 32.31288889 28.21688889 58.48177778 63.03288889 58.48177778s63.03288889-26.16888889 63.03288889-58.48177778v-75.09333333c0-32.31288889 28.21688889-58.48177778 63.03288889-58.48177778h423.25333333c34.816 0 63.03288889 26.16888889 63.03288889 58.48177778v75.09333333c0 32.31288889 28.21688889 58.48177778 63.03288889 58.48177778s63.03288889-26.16888889 63.03288889-58.48177778V447.94311111c0-32.31288889-28.21688889-58.48177778-63.03288889-58.48177778z" fill="#c0cbd9" p-id="2465"></path><path d="M508.52977778 291.15733333H499.2c-13.99466667 0-25.37244445 11.37777778-25.37244445 25.37244445v100.57955555c0 13.99466667 11.37777778 25.37244445 25.37244445 25.37244445h9.32977778c13.99466667 0 25.37244445-11.37777778 25.37244444-25.37244445v-100.57955555c0-13.99466667-11.37777778-25.37244445-25.37244444-25.37244445z" fill="#c0cbd9" p-id="2466"></path></svg>