<?xml version="1.0" standalone="no"?><!DOCTYPE svg PUBLIC "-//W3C//DTD SVG 1.1//EN" "http://www.w3.org/Graphics/SVG/1.1/DTD/svg11.dtd"><svg t="1606269501370" class="icon" viewBox="0 0 1024 1024" version="1.1" xmlns="http://www.w3.org/2000/svg" p-id="1452" width="64" height="64" xmlns:xlink="http://www.w3.org/1999/xlink"><defs><style type="text/css"></style></defs><path d="M766.29333333 1020.58666667h-508.58666666C117.53244445 1020.58666667 3.41333333 906.46755555 3.41333333 766.29333333v-508.58666666C3.41333333 117.53244445 117.53244445 3.41333333 257.70666667 3.41333333h508.58666666C906.46755555 3.41333333 1020.58666667 117.53244445 1020.58666667 257.70666667v508.58666666C1020.58666667 906.46755555 906.46755555 1020.58666667 766.29333333 1020.58666667z m-508.58666666-924.672c-89.20177778 0-161.792 72.59022222-161.792 161.792v508.58666666c0 89.20177778 72.59022222 161.792 161.792 161.792h508.58666666c89.20177778 0 161.792-72.59022222 161.792-161.792v-508.58666666c0-89.20177778-72.59022222-161.792-161.792-161.792h-508.58666666z" fill="#c0cbd9" p-id="1453"></path><path d="M795.53422222 828.64355555H228.46577778c-25.48622222 0-46.19377778-20.70755555-46.19377778-46.19377777s20.70755555-46.19377778 46.19377778-46.19377778h566.95466667c25.48622222 0 46.19377778 20.70755555 46.19377777 46.19377778s-20.59377778 46.19377778-46.08 46.19377777z" fill="#c0cbd9" p-id="1454"></path><path d="M583.11111111 782.336h143.13244444V383.20355555c0-35.49866667-21.95911111-64.28444445-49.152-64.28444444H609.84888889c-15.13244445 0-27.30666667 12.17422222-27.30666667 27.30666667v133.23377777m-88.17777777-264.07822222H332.23111111c-38.00177778 0-68.72177778 30.72-68.72177778 68.72177778v498.23288889h299.57688889V284.10311111c0-37.888-30.72-68.72177778-68.72177777-68.72177778zM371.14311111 682.66666667c0 9.216-7.50933333 16.72533333-16.72533333 16.72533333h-41.41511111c-9.216 0-16.72533333-7.50933333-16.72533334-16.72533333v-41.41511112c0-9.216 7.50933333-16.72533333 16.72533334-16.72533333h41.41511111c9.216 0 16.72533333 7.50933333 16.72533333 16.72533333V682.66666667z m0-122.19733334c0 9.216-7.50933333 16.72533333-16.72533333 16.72533334h-41.41511111c-9.216 0-16.72533333-7.50933333-16.72533334-16.72533334v-41.41511111c0-9.216 7.50933333-16.72533333 16.72533334-16.72533333h41.41511111c9.216 0 16.72533333 7.50933333 16.72533333 16.72533333v41.41511111z m0-122.19733333c0 9.216-7.50933333 16.72533333-16.72533333 16.72533333h-41.41511111c-9.216 0-16.72533333-7.50933333-16.72533334-16.72533333v-41.41511111c0-9.216 7.50933333-16.72533333 16.72533334-16.72533334h41.41511111c9.216 0 16.72533333 7.50933333 16.72533333 16.72533334v41.41511111z m0-122.19733333c0 9.216-7.50933333 16.72533333-16.72533333 16.72533333h-41.41511111c-9.216 0-16.72533333-7.50933333-16.72533334-16.72533333v-41.41511112c0-9.216 7.50933333-16.72533333 16.72533334-16.72533333h41.41511111c9.216 0 16.72533333 7.50933333 16.72533333 16.72533333v41.41511112z" fill="#c0cbd9" p-id="1455"></path></svg>