<?xml version="1.0" standalone="no"?><!DOCTYPE svg PUBLIC "-//W3C//DTD SVG 1.1//EN" "http://www.w3.org/Graphics/SVG/1.1/DTD/svg11.dtd"><svg t="1606270134295" class="icon" viewBox="0 0 1024 1024" version="1.1" xmlns="http://www.w3.org/2000/svg" p-id="1515" xmlns:xlink="http://www.w3.org/1999/xlink" width="64" height="64"><defs><style type="text/css"></style></defs><path d="M380.106 1020.325H155.915A134.332 134.332 0 0 1 22.27 885.535V134.79A134.332 134.332 0 0 1 155.915 0H771.64a134.332 134.332 0 0 1 133.414 134.79v248.49h-68.77V134.79a65.332 65.332 0 0 0-64.644-66.02H155.915a65.561 65.561 0 0 0-64.874 66.02v750.745a65.561 65.561 0 0 0 64.874 66.02h224.191z" fill="#c0cbd9" p-id="1516"></path><path d="M191.446 232.673h444.028v68.77H191.446z m0 190.265h359.44v68.77h-359.44z m0 190.265h179.72v68.77h-179.72zM581.145 1023.992a64.873 64.873 0 0 1-13.066-1.375l-101.322-22.923a57.996 57.996 0 0 1-45.847-47.223l-17.88-102.468a58.455 58.455 0 0 1 17.422-52.724l361.732-343.852a59.143 59.143 0 0 1 41.95-16.047 58.226 58.226 0 0 1 41.034 18.339l119.89 125.162a59.143 59.143 0 0 1-1.605 83.9l-72.668 68.77a44.472 44.472 0 0 1-62.122 0l-71.75-71.52 47.68-48.37 54.787 54.559 48.598-45.847-105.448-111.18-350.042 332.162 15.817 91.694 89.86 20.402L804.65 741.346l47.451 49.973-230.61 217.315a58.226 58.226 0 0 1-40.346 15.358z m-6.877-66.02zM471.571 837.855z m464.2-223.504z" fill="#c0cbd9" p-id="1517"></path></svg>