<?xml version="1.0" standalone="no"?><!DOCTYPE svg PUBLIC "-//W3C//DTD SVG 1.1//EN" "http://www.w3.org/Graphics/SVG/1.1/DTD/svg11.dtd"><svg t="1606270940765" class="icon" viewBox="0 0 1024 1024" version="1.1" xmlns="http://www.w3.org/2000/svg" p-id="1586" xmlns:xlink="http://www.w3.org/1999/xlink" width="64" height="64"><defs><style type="text/css"></style></defs><path d="M924.15 959H101.57c-19.74 0-34.92-15.2-34.92-33.93V224c0-18.73 15.18-33.93 34.92-33.93h822.58c17.74 0 32.92 15.2 32.92 33.93v701.1c0 18.74-15.18 33.9-32.92 33.9zM128.5 891.19h767.72V257.93H128.5z" fill="#c0cbd9" p-id="1587"></path><path d="M901.53 450.48h-800c-19.74 0-34.92-15.2-34.92-33.93s15.18-33.92 34.92-33.92h800c17.74 0 32.92 15.19 32.92 33.92s-15.18 33.93-32.92 33.93zM352.74 319.78a33.94 33.94 0 0 1-33.93-33.93V98.92a33.93 33.93 0 0 1 67.85 0v186.93a33.93 33.93 0 0 1-33.92 33.93zM675 319.78a33.93 33.93 0 0 1-33.92-33.93V98.92a33.93 33.93 0 0 1 67.85 0v186.93A33.94 33.94 0 0 1 675 319.78z" fill="#c0cbd9" p-id="1588"></path><path d="M356 619.19l-70.09-12.56q8.73-33.5 33.58-51.35t70.37-17.83q52.26 0 75.56 19.48t23.3 49a54.75 54.75 0 0 1-9.47 31.32q-9.47 14-28.58 24.58 15.48 3.81 23.67 8.92A57.72 57.72 0 0 1 495 692.28q7.36 13.38 7.38 32a89.09 89.09 0 0 1-12.21 44.7Q478 790.32 455 801.89t-60.26 11.55q-36.4 0-57.43-8.54a85.73 85.73 0 0 1-34.59-25q-13.56-16.47-20.85-41.41l74.1-9.83q4.38 22.39 13.56 31t23.4 8.66a32.19 32.19 0 0 0 24.85-10.93q9.92-10.93 9.91-29.14 0-18.54-9.55-28.75t-25.94-10.23q-8.74 0-24 4.38l3.83-53a69.28 69.28 0 0 0 9.64 0.93q14.58 0 24.31-9.3t9.74-22q0-12.19-7.28-19.48t-20-7.29q-13.1 0-21.3 7.93T356 619.19zM532.75 674.34q0-76.1 27.4-106.5t83.47-30.39q26.94 0 44.24 6.63t28.21 17.32a91.74 91.74 0 0 1 17.21 22.37 116.7 116.7 0 0 1 10.1 27.41 255.57 255.57 0 0 1 7.47 62.26q0 72.64-24.57 106.32t-84.66 33.68q-33.69 0-54.44-10.73a88.18 88.18 0 0 1-34-31.5q-9.63-14.73-15-40.33a276.35 276.35 0 0 1-5.43-56.54z m73.55 0.2q0 51 9 69.64t26.12 18.66a27.39 27.39 0 0 0 19.58-7.93q8.28-7.9 12.21-25t3.9-53.36q0-53.14-9-71.45t-27-18.31q-18.39 0-26.58 18.67t-8.23 69.08z" fill="#c0cbd9" p-id="1589"></path></svg>