<?xml version="1.0" standalone="no"?><!DOCTYPE svg PUBLIC "-//W3C//DTD SVG 1.1//EN" "http://www.w3.org/Graphics/SVG/1.1/DTD/svg11.dtd"><svg t="1606269284592" class="icon" viewBox="0 0 1024 1024" version="1.1" xmlns="http://www.w3.org/2000/svg" p-id="1598" width="48" height="48" xmlns:xlink="http://www.w3.org/1999/xlink"><defs><style type="text/css"></style></defs><path d="M922.5929696 483.2038784l-145.4700608-85.64363627a47.66254507 47.66254507 0 0 0-47.41430293 0l-139.01575787 81.67175787a24.82424213 24.82424213 0 0 0 0 40.46351467L735.41818133 605.0909088a46.42133333 46.42133333 0 0 0 47.414304 0l139.0157568-81.6717568a24.82424213 24.82424213 0 0 0 0.74472747-40.2152736zM349.40121173 377.700848L487.17575787 459.37260587a46.91781867 46.91781867 0 0 0 47.66254506 0l138.76751574-81.67175787a24.82424213 24.82424213 0 0 0 0-40.46351467L536.82424213 255.56557547a47.91078827 47.91078827 0 0 0-47.66254506 0L349.40121173 338.23030293a24.82424213 24.82424213 0 0 0 0 39.47054507zM101.4070304 523.419152l139.01575787 81.6717568a46.42133333 46.42133333 0 0 0 47.41430293 0l145.4700608-85.39539413a24.82424213 24.82424213 0 0 0 0-40.46351467l-139.01575787-81.67175787a47.66254507 47.66254507 0 0 0-47.41430293 0l-145.4700608 85.64363627a24.82424213 24.82424213 0 0 0 0 40.2152736zM590.692848 238.93333333L735.41818133 323.33575787a46.42133333 46.42133333 0 0 0 47.414304 0l139.0157568-81.67175787a24.82424213 24.82424213 0 0 0 0-40.21527253L777.1229088 114.8121216a47.66254507 47.66254507 0 0 0-47.41430293 0l-139.01575787 81.6717568a24.82424213 24.82424213 0 0 0 0 42.44945493zM101.4070304 241.664l139.01575787 81.67175787a46.42133333 46.42133333 0 0 0 47.41430293 0l145.4700608-84.40242454a24.82424213 24.82424213 0 0 0 0-40.46351466L294.29139413 114.8121216a47.66254507 47.66254507 0 0 0-47.41430293 0L101.4070304 201.44872747a24.82424213 24.82424213 0 0 0 0 40.21527253z" fill="#c0cbd9" p-id="1599"></path><path d="M905.96072747 631.40460587l-21.5970912-12.90860587a24.82424213 24.82424213 0 0 0-24.82424214 0l-49.64848533 29.540848a97.06278827 97.06278827 0 0 1-49.64848427 12.90860693 95.57333333 95.57333333 0 0 1-49.64848533-13.15684906l-86.884848-51.1379392L565.62036373 561.64848533a72.7350304 72.7350304 0 0 1-34.25745493-49.64848533 85.147152 85.147152 0 0 1-38.7258176 0 72.7350304 72.7350304 0 0 1-34.25745493 49.64848533l-58.58521174 34.505696L313.4060608 648.036848a95.57333333 95.57333333 0 0 1-49.64848533 12.90860693 97.06278827 97.06278827 0 0 1-49.64848427-13.15684906l-49.64848533-29.29260587a24.82424213 24.82424213 0 0 0-24.82424214 0l-21.84533333 12.90860587a56.59927253 56.59927253 0 0 0 0 97.80751573l336.36848427 198.5939392a113.94327253 113.94327253 0 0 0 115.18448533 0l336.36848533-198.5939392a56.59927253 56.59927253 0 0 0 0.24824214-97.80751573z" fill="#c0cbd9" p-id="1600"></path></svg>