<?xml version="1.0" standalone="no"?><!DOCTYPE svg PUBLIC "-//W3C//DTD SVG 1.1//EN" "http://www.w3.org/Graphics/SVG/1.1/DTD/svg11.dtd"><svg t="1606270322622" class="icon" viewBox="0 0 1024 1024" version="1.1" xmlns="http://www.w3.org/2000/svg" p-id="1515" xmlns:xlink="http://www.w3.org/1999/xlink" width="64" height="64"><defs><style type="text/css"></style></defs><path d="M686.99022222 373.19111111c0 61.32622222 49.72088889 111.04711111 111.04711111 111.04711111 61.32622222 0 111.04711111-49.72088889 111.04711112-111.04711111 0-61.32622222-49.72088889-111.04711111-111.04711112-111.04711111-61.32622222 0-111.04711111 49.60711111-111.04711111 111.04711111z m-87.83644444 276.25244444s0 0.11377778 0 0z m397.76711111 1.47911112v-0.22755556 0.22755556z m0-0.34133334v-0.34133333 0.34133333zM898.73066667 507.67644445l-9.10222222-0.11377778c-3.18577778 0-8.07822222 1.25155555-10.8088889 2.73066666 0 0-7.28177778 4.20977778-13.88088888 7.05422222-19.91111111 8.53333333-42.55288889 13.53955555-66.56 13.53955556-23.89333333 0-46.53511111-4.77866667-66.33244445-13.312-6.71288889-2.84444445-14.22222222-7.168-14.22222222-7.168-2.84444445-1.59288889-7.62311111-2.84444445-10.80888889-2.73066666l-8.98844444 0.11377777c-36.40888889 4.77866667-74.52444445 37.09155555-85.56088889 71.90755556 0 0-11.60533333 23.552-13.312 69.85955555-0.11377778 6.03022222 4.77866667 13.65333333 10.92266667 16.95288889 0 0 61.89511111 39.82222222 187.8471111 39.82222223 125.952 0 187.84711111-39.82222222 187.84711112-39.82222223 6.144-3.29955555 11.15022222-11.71911111 10.92266666-17.06666667-1.59288889-46.08-12.85688889-68.72177778-12.85688888-68.72177777-10.01244445-35.15733333-48.81066667-67.69777778-85.10577778-73.04533333zM996.92088889 649.67111111v-0.22755556 0.22755556z m0 0.56888889v-0.45511111 0.45511111z m0 0M219.36355555 476.72888889c54.15822222 0 99.21422222-38.79822222 108.99911112-90.112-15.47377778-27.648-24.34844445-59.392-24.80355556-93.07022222-20.36622222-23.77955555-50.51733333-38.79822222-84.19555556-38.79822222-61.32622222 0-111.04711111 49.72088889-111.0471111 111.0471111 0 61.21244445 49.72088889 110.93333333 111.0471111 110.93333334zM185.45777778 614.85511111c12.288-37.77422222 41.41511111-72.93155555 76.91377777-96.71111111-13.53955555 3.52711111-27.87555555 5.34755555-42.78044444 5.34755555-23.89333333 0-46.53511111-4.77866667-66.33244444-13.312-6.71288889-2.84444445-14.22222222-7.168-14.22222222-7.168-2.84444445-1.59288889-7.62311111-2.84444445-10.8088889-2.73066666l-8.98844444 0.11377778c-36.40888889 4.77866667-74.52444445 37.09155555-85.56088889 71.90755555 0 0-11.60533333 23.552-13.312 69.85955556-0.11377778 6.03022222 4.77866667 13.65333333 10.92266667 16.95288889 0 0 44.48711111 28.44444445 134.37155556 37.20533333 5.57511111-47.67288889 16.95288889-75.09333333 19.79733333-81.46488889z" fill="#c0cbd9" p-id="1516"></path><path d="M798.15111111 735.45955555l1.36533334-0.91022222c0.45511111-0.34133333 1.13777778-1.47911111 1.70666666-2.38933333-5.00622222-62.23644445-21.04888889-93.52533333-21.27644444-93.86666667l-2.048-4.77866666c-14.22222222-43.008-65.536-83.85422222-112.64-89.88444445l-12.288 0.34133333c-0.11377778 0.11377778-1.93422222 0.56888889-2.73066667 0.91022223-3.18577778 2.048-13.76711111 8.41955555-24.12088889 13.312-36.06755555 17.408-75.54844445 27.07911111-117.19111111 28.78577777-40.96 1.70666667-82.14755555-4.89244445-118.89777778-18.8871111-10.01244445-3.75466667-20.25244445-8.87466667-24.576-11.03644445-42.43911111 18.09066667-80.66844445 58.59555555-92.04622222 100.69333333 0 0-15.47377778 34.70222222-15.13244445 101.71733334 0.11377778 4.096 1.82044445 8.53333333 4.43733334 12.62933333 42.78044445 15.70133333 128.34133333 38.68444445 254.40711111 33.56444445 187.05066667-7.50933333 280.12088889-69.51822222 281.03111111-70.2008889zM527.92888889 175.78666667c-88.74666667 0-160.65422222 71.90755555-160.65422222 160.65422222 0 9.55733333 1.024 18.88711111 2.61688888 27.98933333 25.37244445 44.032 72.81777778 73.95555555 127.20355556 73.95555556 80.896 0 146.65955555-65.76355555 146.65955556-146.65955556 0-35.04355555-12.40177778-67.24266667-32.99555556-92.61511111-24.23466667-14.79111111-52.45155555-23.32444445-82.83022222-23.32444444z" fill="#c0cbd9" p-id="1517"></path><path d="M498.688 841.61422222c-197.632 0-299.12177778-59.73333333-309.13422222-65.99111111-15.58755555-8.53333333-26.73777778-26.39644445-26.51022223-42.89422222v-0.34133334c2.50311111-69.85955555 18.88711111-109.568 22.528-117.53244444 20.13866667-62.35022222 86.35733333-117.64622222 151.0968889-126.29333333l2.16177777-0.11377778 14.336-0.11377778c8.30577778-0.11377778 19.22844445 2.50311111 26.51022223 6.71288889 0.22755555 0.11377778 11.264 6.48533333 20.9351111 10.58133334 30.15111111 12.97066667 64.39822222 19.79733333 98.8728889 19.79733333 34.92977778 0 68.38044445-6.71288889 99.21422222-20.02488889 9.55733333-3.98222222 20.25244445-10.24 20.36622222-10.24l0.56888889-0.34133334c7.05422222-3.75466667 17.86311111-6.48533333 25.82755555-6.48533333l15.92888889 0.11377778 1.25155556 0.22755555c64.96711111 9.55733333 131.86844445 66.78755555 150.07288889 128 3.75466667 8.41955555 19.34222222 46.76266667 21.61777778 115.48444445v0.79644445h0.4551111v0.4551111h-0.4551111v0.22755556h0.4551111v0.68266667h-0.4551111 0.4551111v0.56888889h-0.4551111v0.11377778h0.4551111-0.4551111c-0.91022222 15.01866667-12.17422222 32.65422222-26.28266667 40.61866666-9.216 5.68888889-110.70577778 65.99111111-309.36177778 65.99111111z m-299.46311111-108.31644444c0.11377778 2.27555555 3.41333333 8.30577778 7.73688889 10.58133333l1.36533333 0.79644444c0.91022222 0.56888889 97.84888889 60.64355555 290.24711111 60.64355556 192.512 0 289.33688889-60.07466667 290.36088889-60.64355556l1.13777778-0.68266666c3.64088889-1.93422222 7.62311111-8.30577778 8.07822222-11.03644444-2.38933333-67.69777778-18.54577778-101.71733333-18.65955556-102.05866667l-0.68266666-1.47911111-0.45511111-1.59288889c-13.65333333-48.128-68.38044445-95.11822222-119.808-103.31022223l-13.312-0.11377777c-1.82044445 0-6.48533333 1.13777778-8.53333333 2.16177777-2.27555555 1.25155555-13.312 7.50933333-23.89333334 11.94666667-35.27111111 15.24622222-73.50044445 22.98311111-113.43644444 22.98311111-39.36711111 0-78.39288889-7.85066667-113.09511112-22.75555555-11.60533333-5.00622222-24.00711111-12.17422222-24.576-12.40177778-1.47911111-0.79644445-5.91644445-1.93422222-7.85066666-1.93422222h-0.34133334l-13.312 0.11377777c-50.40355555 7.168-105.472 53.81688889-120.71822222 102.28622223l-0.45511111 1.36533333-0.56888889 1.25155556c-0.11377778 0.22755555-16.83911111 35.61244445-19.34222222 103.53777778l0.11377778 0.11377777h-0.11377778c0.11377778 0 0.11377778 0.11377778 0.11377778 0.22755556zM499.02933333 486.96888889c-107.74755555 0-195.47022222-87.72266667-195.47022222-195.47022222 0-107.74755555 87.72266667-195.47022222 195.47022222-195.47022222 107.74755555 0 195.47022222 87.72266667 195.47022222 195.47022222-0.11377778 107.74755555-87.72266667 195.47022222-195.47022222 195.47022222z m0-354.64533334c-87.83644445 0-159.17511111 71.45244445-159.17511111 159.17511112 0 87.83644445 71.45244445 159.17511111 159.17511111 159.17511111 87.83644445 0 159.17511111-71.45244445 159.17511112-159.17511111 0-87.83644445-71.45244445-159.17511111-159.17511112-159.17511112z" fill="#c0cbd9" p-id="1518"></path><path d="M498.688 854.12977778c-200.704 0-304.58311111-60.87111111-315.73333333-67.81155556-19.11466667-10.35377778-32.768-32.65422222-32.42666667-53.81688889 2.50311111-69.97333333 18.09066667-110.47822222 23.32444445-122.19733333 21.73155555-66.21866667 92.38755555-125.04177778 161.2231111-134.144l2.95822223-0.22755555 15.01866667-0.22755556c10.46755555-0.11377778 23.66577778 3.072 32.768 8.30577778 0.22755555 0.11377778 10.80888889 6.144 19.68355555 10.01244444 28.672 12.288 61.09866667 18.77333333 93.86666667 18.77333334 33.22311111 0 64.96711111-6.37155555 94.208-19.0008889 8.87466667-3.75466667 19.00088889-9.55733333 19.11466666-9.55733333l0.79644445-0.45511111c9.10222222-4.89244445 21.84533333-7.96444445 31.85777777-7.96444444l19.0008889 0.45511111c69.85955555 10.24 139.94666667 69.97333333 160.08533333 135.96444444 4.77866667 10.92266667 18.432 46.76266667 21.95911111 108.08888889h0.56888889l0.45511111 26.51022222-2.50311111 0.11377778c-4.55111111 15.92888889-16.27022222 31.51644445-30.72 39.59466667-10.69511111 6.59911111-114.11911111 67.584-315.50577778 67.584zM353.84888889 500.736h-0.45511111l-15.81511111 0.22755555c-59.50577778 7.85066667-121.28711111 59.61955555-140.06044445 117.64622223l-0.45511111 1.36533333c-3.18577778 6.94044445-18.88711111 44.94222222-21.39022222 112.75377778-0.22755555 11.94666667 8.41955555 25.6 19.91111111 31.85777778 11.15022222 6.94044445 109.45422222 64.39822222 303.21777778 64.39822222 194.33244445 0 292.18133333-57.57155555 302.64888889-64.17066667 10.69511111-6.03022222 19.56977778-19.56977778 20.48-30.37866667V732.72888889c-2.27555555-67.35644445-17.52177778-104.33422222-20.59377778-111.16088889l-0.56888889-1.59288889c-16.95288889-56.77511111-79.64444445-110.25066667-139.94666667-119.12533333h-0.34133333l-15.13244445-0.11377778c-5.80266667 0-14.56355555 2.16177778-19.79733333 5.00622222-0.68266667 0.34133333-11.71911111 6.71288889-21.95911111 11.03644445-32.31288889 13.99466667-67.35644445 21.04888889-104.10666666 21.04888888-36.18133333 0-72.02133333-7.168-103.76533334-20.82133333-10.35377778-4.43733333-22.18666667-11.264-22.30044444-11.264-5.12-2.84444445-13.42577778-5.00622222-19.56977778-5.00622222z m144.83911111 317.21244445c-195.92533333 0-296.04977778-62.00888889-296.96-62.57777778l-1.024-0.56888889c-5.12-2.61688889-9.32977778-7.85066667-11.71911111-12.97066667l-2.38933334-1.13777778 0.22755556-8.30577778c0.11377778-2.38933333 0.22755555-4.66488889 0.34133334-6.94044444l0.22755555-4.77866666c3.98222222-62.23644445 19.34222222-95.00444445 20.02488889-96.48355556l0.34133333-0.91022222c16.72533333-53.248 75.43466667-102.96888889 130.84444445-110.93333334l1.70666666-0.11377778 13.312-0.11377777c4.32355555 0.11377778 10.80888889 1.47911111 14.336 3.52711111 1.36533333 0.79644445 12.85688889 7.28177778 23.32444445 11.83288889 33.10933333 14.22222222 70.54222222 21.73155555 108.20266667 21.73155555 38.22933333 0 74.752-7.39555555 108.43022222-21.95911111 10.01244445-4.20977778 20.59377778-10.24 22.64177778-11.37777777 3.98222222-2.048 10.58133333-3.75466667 14.7911111-3.75466667l15.24622223 0.34133333c56.54755555 8.98844445 114.80177778 59.27822222 129.93422222 112.29866667l0.34133333 1.024c1.82044445 3.98222222 17.63555555 39.13955555 20.02488889 107.06488889v1.13777778l-0.22755555 1.13777777c-0.91022222 6.37155555-7.168 16.27022222-14.44977778 20.25244445l-0.68266667 0.45511111c-0.79644445 0.11377778-100.46577778 62.12266667-296.84622222 62.12266667z m-260.77866667-72.47644445c38.79822222 17.18044445 126.17955555 47.33155555 260.77866667 47.33155555 187.16444445 0 282.73777778-58.14044445 283.648-58.8231111l1.36533333-0.79644445c0.45511111-0.34133333 1.25155555-1.36533333 1.82044445-2.27555555-2.50311111-62.464-17.29422222-94.32177778-17.408-94.66311112l-1.82044445-4.77866666c-12.40177778-43.57688889-62.12266667-86.47111111-108.88533333-94.32177778L645.12 537.03111111c-0.11377778 0.11377778-1.93422222 0.56888889-2.73066667 0.79644444-3.29955555 1.82044445-14.10844445 7.85066667-24.576 12.288-36.75022222 15.92888889-76.57244445 23.89333333-118.21511111 23.89333334-41.07377778 0-81.80622222-8.192-117.98755555-23.77955556-10.80888889-4.66488889-21.95911111-10.92266667-25.25866667-12.74311111-0.79644445-0.22755555-2.16177778-0.56888889-2.73066667-0.56888889l-12.06044444 0.11377778c-45.85244445 6.94044445-95.91466667 49.60711111-109.68177778 93.52533334l-1.82044444 4.43733333c-0.11377778 0.11377778-14.336 31.40266667-17.74933334 90.45333333l25.6 20.02488889z m548.18133334-15.47377778zM499.02933333 499.48444445c-114.688 0-207.98577778-93.29777778-207.98577778-207.98577778 0-114.688 93.29777778-207.98577778 207.98577778-207.98577778s207.98577778 93.29777778 207.98577778 207.98577778C706.90133333 406.18666667 613.60355555 499.48444445 499.02933333 499.48444445z m0-390.82666667c-100.80711111 0-182.95466667 82.03377778-182.95466666 182.95466667 0 100.80711111 82.03377778 182.95466667 182.95466666 182.95466666S681.984 392.53333333 681.984 291.61244445c-0.11377778-100.92088889-82.14755555-182.95466667-182.95466667-182.95466667z m0 354.64533333c-94.66311111 0-171.80444445-77.02755555-171.80444444-171.80444444s77.02755555-171.80444445 171.80444444-171.80444445 171.80444445 77.02755555 171.80444445 171.80444445-77.14133333 171.80444445-171.80444445 171.80444444z m0-318.464c-80.896 0-146.65955555 65.76355555-146.65955555 146.65955556 0 80.896 65.76355555 146.65955555 146.65955555 146.65955555 80.896 0 146.65955555-65.76355555 146.65955556-146.65955555 0-80.896-65.87733333-146.65955555-146.65955556-146.65955556z" fill="#c0cbd9" p-id="1519"></path></svg>