<?xml version="1.0" standalone="no"?><!DOCTYPE svg PUBLIC "-//W3C//DTD SVG 1.1//EN" "http://www.w3.org/Graphics/SVG/1.1/DTD/svg11.dtd"><svg t="1606271193484" class="icon" viewBox="0 0 1024 1024" version="1.1" xmlns="http://www.w3.org/2000/svg" p-id="2169" xmlns:xlink="http://www.w3.org/1999/xlink" width="64" height="64"><defs><style type="text/css"></style></defs><path d="M463.044656 176.884283l1.302246-1.181106c-216.465499 0-392.632053 189.037585-392.632053 421.735724-1.009493 221.422107 180.8506 401.626632 406.340962 402.60584h8.85325C715.569231 1003.436636 903.779031 824.756445 907.958331 600.386619v-24.036018l-444.913675 1.181106z" fill="#c0cbd9" p-id="2170"></path><path d="M600.820207 70.312149v361.923288A30.234303 30.234303 0 0 0 631.05451 462.439455h384.010986v-25.519973C985.558027 282.305595 805.202079 100.596927 600.820207 70.312149c-2.76601-0.413892 37.351226 12.850841 0 0m-19.725486-57.460319" fill="#c0cbd9" p-id="2171"></path><path d="M571.019985 0.000989c-3.301041 0-6.591987 0-9.903122 0.181709H550.194153v187.119549h0.181708v284.676913h439.129282v0.868164h33.313256v-22.915482C1022.354032 200.890017 820.122379-0.513852 571.019985 0.000989z m15.455332 436.575266l1.554618-13.70891V55.028431C794.592312 67.525949 973.393641 236.222258 986.58771 436.576255z m0 0" fill="#c0cbd9" p-id="2172"></path><path d="M910.199404 549.064016h-432.062833a4.108635 4.108635 0 0 1-4.108635-4.108635V113.064161c0-0.232183 0.06057-0.686455 0.060569-0.686455l0.242279-32.101865s-2.018985-3.836072-4.169205-3.795692-4.966704 0.131234-7.954802 0.302848C206.138884 86.100613 3.039067 295.449189 1.131126 551.668506c1.009493 260.378427 212.649617 470.76678 473.028044 470.251939a482.375945 482.375945 0 0 0 98.031826-11.720209 25.237315 25.237315 0 0 0 19.664916-24.59124 23.389944 23.389944 0 0 0-28.730159-22.804438 439.129282 439.129282 0 0 1-88.966583 11.72021h-9.024864c-231.739122-1.736327-418.353924-190.945526-416.617597-422.856262C50.081423 330.518962 218.97963 146.377417 439.250916 125.511205h0.171613v428.236856a23.662507 23.662507 0 0 0 23.601937 23.783646h430.326507a4.108635 4.108635 0 0 1 4.03797 4.512432 437.110297 437.110297 0 0 1-48.455645 159.308027 21.502192 21.502192 0 0 0 19.008746 31.556739h8.510023a18.110297 18.110297 0 0 0 16.081217-9.691129c32.646991-62.649111 51.898015-138.885992 53.927095-214.012432" fill="#c0cbd9" p-id="2173"></path><path d="M808.331506 819.35566a17.908399 17.908399 0 0 0-13.426252 6.056955 439.038428 439.038428 0 0 1-182.536452 123.390281 23.844215 23.844215 0 0 0-15.798559 22.511685A24.480196 24.480196 0 0 0 629.156664 994.351202a481.124174 481.124174 0 0 0 198.284537-131.64793c15.142389-16.697008 3.40199-43.357707-19.0996-43.357707z" fill="#c0cbd9" p-id="2174"></path></svg>