<?xml version="1.0" standalone="no"?><!DOCTYPE svg PUBLIC "-//W3C//DTD SVG 1.1//EN" "http://www.w3.org/Graphics/SVG/1.1/DTD/svg11.dtd"><svg t="1606270463967" class="icon" viewBox="0 0 1024 1024" version="1.1" xmlns="http://www.w3.org/2000/svg" p-id="1482" xmlns:xlink="http://www.w3.org/1999/xlink" width="64" height="64"><defs><style type="text/css"></style></defs><path d="M426.666667 138.666667h192a32 32 0 0 0 0-64h-192a32 32 0 0 0 0 64z" fill="#c0cbd9" p-id="1483"></path><path d="M832 74.666667h-136.96l-2.346667 29.44C689.493333 141.44 666.453333 170.666667 640 170.666667H384c-26.453333 0-49.493333-29.226667-52.48-66.56l-2.56-29.44H192A74.666667 74.666667 0 0 0 117.333333 149.333333v725.333334A74.666667 74.666667 0 0 0 192 949.333333h640a74.666667 74.666667 0 0 0 74.666667-74.666666V149.333333A74.666667 74.666667 0 0 0 832 74.666667z m10.666667 800a10.88 10.88 0 0 1-10.666667 10.666666H192a10.88 10.88 0 0 1-10.666667-10.666666V149.333333a10.88 10.88 0 0 1 10.666667-10.666666h80.64A120.32 120.32 0 0 0 384 234.666667h256a120.32 120.32 0 0 0 111.36-96H832a10.88 10.88 0 0 1 10.666667 10.666666z" fill="#c0cbd9" p-id="1484"></path><path d="M650.666667 576a32 32 0 1 0 0-64h-55.466667l56.106667-62.72a38.826667 38.826667 0 0 0 0-50.56 29.653333 29.653333 0 0 0-45.226667 0l-75.52 84.266667a36.48 36.48 0 0 0-8.32 19.2 37.76 37.76 0 0 0-9.386667-23.466667l-76.586666-85.333333a30.08 30.08 0 0 0-45.44 0 37.973333 37.973333 0 0 0 0 50.133333l61.866666 68.266667H394.666667a32 32 0 0 0 0 64H490.666667v64h-96a32 32 0 0 0 0 64H490.666667v53.333333a32 32 0 1 0 64 0V704h96a32 32 0 1 0 0-64H554.666667v-64z" fill="#c0cbd9" p-id="1485"></path></svg>