<?xml version="1.0" standalone="no"?><!DOCTYPE svg PUBLIC "-//W3C//DTD SVG 1.1//EN" "http://www.w3.org/Graphics/SVG/1.1/DTD/svg11.dtd"><svg t="1606270186719" class="icon" viewBox="0 0 1024 1024" version="1.1" xmlns="http://www.w3.org/2000/svg" p-id="1515" xmlns:xlink="http://www.w3.org/1999/xlink" width="64" height="64"><defs><style type="text/css"></style></defs><path d="M436.68140973 999.06715163c-11.29778866 0-18.82964818-3.76592915-26.36150648-11.29778866L191.89599073 769.34545045C150.47076644 727.92022616 150.47076644 660.1334954 191.89599073 622.47420026c37.65929514-37.65929514 109.21195626-37.65929514 146.87125139 0l22.59557733 22.59557611v-335.16772709c0-56.48894331 45.19115466-105.4460259 105.44602589-105.4460259s105.4460259 45.19115466 105.44602712 105.4460259V434.17772336c45.19115466-3.76592915 82.85044978 22.59557732 101.68009675 56.48894331 7.53185951 0 11.29778866-3.76592915 18.82964818-3.76592915 41.42522429 0 75.31859027 22.59557732 94.14823723 60.25487246 7.53185951 0 11.29778866-3.76592915 18.82964817-3.76593036 56.48894331 0 105.4460259 45.19115466 105.4460259 105.44602711V961.40785649c0 22.59557732-15.06371781 37.65929514-37.65929513 37.65929514s-37.65929514-15.06371781-37.65929514-37.65929514v-308.80622061c0-15.06371781-11.29778866-30.12743563-30.12743563-30.12743562-7.53185951 0-15.06371781 3.76592915-18.82964817 7.53185829-11.29778866 11.29778866-26.36150647 15.06371781-41.42522428 7.53185952-15.06371781-7.53185951-22.59557732-18.82964818-22.59557733-33.89336599v-11.29778866c0-15.06371781-11.29778866-30.12743563-30.12743562-30.12743562-7.53185951 0-15.06371781 3.76592915-18.82964818 7.53185829-15.06371781 15.06371781-30.12743563 18.82964818-45.19115465 15.06371903-15.06371781-7.53185951-22.59557732-22.59557732-22.59557611-37.65929514v-11.29778865c0-15.06371781-11.29778866-30.12743563-30.12743684-30.12743685-7.53185951 0-15.06371781 3.76592915-18.82964695 7.53185951-11.29778866 11.29778866-26.36150647 15.06371781-41.42522551 7.53185831-15.06371781-7.53185951-22.59557732-18.82964818-22.59557733-33.89336478v-180.76461739c0-15.06371781-11.29778866-30.12743563-30.12743562-30.12743561s-30.12743563 11.29778866-30.12743562 30.12743561V735.45208567c0 15.06371781-7.53185951 30.12743563-22.59557733 33.89336478-15.06371781 7.53185951-30.12743563 3.76592915-41.4252255-7.53185831l-86.61637773-86.61637893c-11.29778866-11.29778866-30.12743563-11.29778866-41.42522549 0-11.29778866 11.29778866-11.29778866 30.12743563 0 41.42522429l218.42391252 222.18984166c15.06371781 15.06371781 15.06371781 37.65929514 0 52.72301295-3.76592915 3.76592915-11.29778866 7.53185951-22.59557732 7.53185952z" fill="#c0cbd9" p-id="1516"></path><path d="M214.49156805 434.17772336c-15.06371781 0-30.12743563-11.29778866-37.65929513-26.36150647-7.53185951-26.36150647-11.29778866-52.72301295-11.29778866-82.85044858C165.53448426 155.49893959 304.87387614 19.92547685 470.57477571 19.92547685c169.46682873 0 305.04029147 135.57346273 305.04029025 305.04029146 0 22.59557732-3.76592915 41.42522429-7.5318583 60.25487246s-22.59557732 33.89336598-45.19115465 30.12743563c-18.82964818-3.76592915-33.89336598-22.59557732-30.12743562-45.19115466 3.76592915-15.06371781 3.76592915-30.12743563 3.76592915-45.19115343 0-128.04160322-101.68009675-229.72169998-229.7217012-229.72170118s-229.72169998 101.68009675-229.72169996 229.72170118c0 22.59557732 3.76592915 41.42522429 7.5318583 64.02080161s0 37.65929514-18.82964697 45.19115344h-11.29778866z" fill="#c0cbd9" p-id="1517"></path></svg>